<svg width="258" height="368" viewBox="0 0 258 368" fill="white" xmlns="http://www.w3.org/2000/svg">
<g clip-path="url(#clip0_572_900)">
<path fill-rule="evenodd" clip-rule="evenodd" d="M0.689419 294.75C0.941419 293.787 0.941419 292.213 0.689419 291.25C0.438419 290.287 0.232419 291.075 0.232419 293C0.232419 294.925 0.438419 295.713 0.689419 294.75ZM3.74942 233.681C3.90742 220.581 3.90741 199.431 3.74941 186.681C3.59141 173.932 3.46141 184.65 3.46242 210.5C3.46242 236.35 3.59142 246.782 3.74942 233.681ZM6.74342 329.25C6.93242 325.263 6.93242 318.737 6.74342 314.75C6.55342 310.763 6.39742 314.025 6.39742 322C6.39742 329.975 6.55342 333.237 6.74342 329.25ZM12.7504 132.175C12.8994 108.346 12.8994 69.6459 12.7504 46.1749C12.6004 22.7039 12.4784 42.1999 12.4784 89.4999C12.4784 136.8 12.6004 156.004 12.7504 132.175ZM20.7494 343.25C20.9064 329.362 20.9064 306.637 20.7494 292.75C20.5924 278.862 20.4644 290.225 20.4644 318C20.4644 345.775 20.5924 357.137 20.7494 343.25ZM24.0224 186C24.3764 206.668 24.5924 193.773 24.6934 146C24.7754 107.225 24.6884 75.9499 24.4994 76.4999C23.8404 78.4169 23.5044 155.722 24.0224 186ZM29.7504 321.25C29.8984 295.263 29.8984 252.738 29.7504 226.75C29.6014 200.763 29.4804 222.025 29.4804 274C29.4804 325.975 29.6014 347.238 29.7504 321.25ZM33.3664 222.917C33.5684 222.687 33.9274 207.425 34.1644 189C34.4024 170.575 34.2874 159.775 33.9104 165C33.1904 174.965 32.7344 223.636 33.3664 222.917ZM42.0004 296C42.6414 296 43.0004 286.667 43.0004 270C43.0004 253.333 42.6414 244 42.0004 244C41.3594 244 41.0004 253.333 41.0004 270C41.0004 286.667 41.3594 296 42.0004 296ZM47.7494 276.185C47.9124 266.112 47.9124 249.912 47.7484 240.185C47.5854 230.458 47.4514 238.7 47.4514 258.5C47.4524 278.3 47.5864 286.258 47.7494 276.185ZM50.7404 54.2499C50.9364 50.8119 50.9364 45.1869 50.7404 41.7499C50.5454 38.3119 50.3854 41.1249 50.3854 47.9999C50.3854 54.8749 50.5454 57.6869 50.7404 54.2499ZM56.7494 280.75C56.9084 268.787 56.9084 249.212 56.7494 237.25C56.5894 225.287 56.4594 235.075 56.4594 259C56.4594 282.925 56.5894 292.712 56.7494 280.75ZM57.7474 84.2499C57.9204 77.5119 57.9204 66.4879 57.7474 59.7499C57.5744 53.0119 57.4324 58.5249 57.4324 71.9999C57.4324 85.4749 57.5744 90.9879 57.7474 84.2499ZM61.6934 191.731C61.9474 190.758 61.9304 189.408 61.6564 188.731C61.3824 188.054 61.1754 188.85 61.1954 190.5C61.2154 192.15 61.4394 192.704 61.6934 191.731ZM63.7334 167.224C63.9454 164.872 63.9424 161.272 63.7274 159.224C63.5124 157.176 63.3394 159.1 63.3434 163.5C63.3464 167.9 63.5224 169.576 63.7334 167.224ZM65.9054 215.5C66.2924 212.783 66.6554 215.188 67.0384 223C67.4124 230.64 67.6064 225.94 67.6164 209C67.6244 194.975 67.4014 185.975 67.1214 189L66.6134 194.5L65.9694 189C65.5994 185.836 65.3284 191.146 65.3314 201.5C65.3344 211.4 65.5924 217.7 65.9054 215.5ZM66.6044 197.271C66.9364 197.603 66.9724 198.466 66.6834 199.187C66.3644 199.985 66.1274 199.748 66.0794 198.583C66.0364 197.529 66.2724 196.939 66.6044 197.271ZM67.7394 122.75C67.9374 119.588 67.9374 114.412 67.7394 111.25C67.5414 108.087 67.3784 110.675 67.3784 117C67.3784 123.325 67.5414 125.912 67.7394 122.75ZM71.0224 254.5L71.5454 284.5L71.7724 252.083C71.8984 234.254 71.6884 219.978 71.3084 220.359C70.4074 221.26 70.4194 219.822 71.0224 254.5ZM70.6624 214.25C70.9404 213.562 70.9404 212.437 70.6624 211.75C70.3854 211.062 70.1584 211.625 70.1584 213C70.1584 214.375 70.3854 214.937 70.6624 214.25ZM71.7464 150.75C71.9254 145.387 71.9254 136.613 71.7464 131.25C71.5664 125.887 71.4194 130.275 71.4194 141C71.4194 151.725 71.5664 156.113 71.7464 150.75ZM81.7504 162.75C81.9014 141.987 81.9014 108.012 81.7504 87.2499C81.5994 66.4869 81.4754 83.4749 81.4754 125C81.4754 166.525 81.5994 183.512 81.7504 162.75ZM83.7484 249.75C83.9164 241.638 83.9164 228.363 83.7484 220.25C83.5804 212.138 83.4424 218.775 83.4424 235C83.4424 251.225 83.5804 257.863 83.7484 249.75ZM83.7384 168.216C83.9414 165.311 83.9394 160.811 83.7344 158.216C83.5284 155.622 83.3634 158 83.3654 163.5C83.3684 169 83.5364 171.122 83.7384 168.216ZM84.6894 84.7499C84.9414 83.7879 84.9414 82.2119 84.6894 81.2499C84.4384 80.2879 84.2324 81.0749 84.2324 82.9999C84.2324 84.9249 84.4384 85.7119 84.6894 84.7499ZM86.0004 288C86.3014 303.675 86.5644 278.475 86.5854 232C86.6094 176.443 86.3924 157.262 85.9494 176C85.1844 208.342 85.2014 246.383 86.0004 288ZM89.7494 337.25C89.9054 322.263 89.9054 297.738 89.7494 282.75C89.5944 267.763 89.4664 280.025 89.4664 310C89.4664 339.975 89.5944 352.238 89.7494 337.25ZM91.7464 164.197C91.9254 158.53 91.9244 149.53 91.7454 144.197C91.5654 138.864 91.4194 143.5 91.4204 154.5C91.4214 165.5 91.5684 169.864 91.7464 164.197ZM93.7434 257.25C93.9324 253.263 93.9324 246.737 93.7434 242.75C93.5534 238.762 93.3974 242.025 93.3974 250C93.3974 257.975 93.5534 261.237 93.7434 257.25ZM93.7284 188.75C93.9444 186.687 93.9444 183.312 93.7284 181.25C93.5134 179.187 93.3364 180.875 93.3364 185C93.3364 189.125 93.5134 190.812 93.7284 188.75ZM96.7474 33.2499C96.9224 27.0619 96.9224 16.9369 96.7474 10.7499C96.5714 4.56187 96.4284 9.62487 96.4284 21.9999C96.4284 34.3749 96.5714 39.4369 96.7474 33.2499ZM99.7374 267.25C99.9394 264.362 99.9394 259.638 99.7374 256.75C99.5354 253.862 99.3704 256.225 99.3704 262C99.3704 267.775 99.5354 270.138 99.7374 267.25ZM105.736 356.72C105.943 354.091 105.94 350.041 105.731 347.72C105.521 345.399 105.352 347.55 105.355 352.5C105.358 357.45 105.53 359.349 105.736 356.72ZM108.746 257.197C108.925 251.53 108.924 242.53 108.745 237.197C108.565 231.864 108.419 236.5 108.42 247.5C108.421 258.5 108.568 262.864 108.746 257.197ZM112.048 132.5C112.423 121.5 112.707 104.4 112.679 94.4999L112.63 76.4999L111.953 96.9999C111.58 108.275 111.296 125.375 111.322 135L111.368 152.5L112.048 132.5ZM116.733 79.2239C116.945 76.8719 116.942 73.2719 116.727 71.2239C116.512 69.1759 116.339 71.0999 116.343 75.4999C116.346 79.8999 116.522 81.5759 116.733 79.2239ZM118.662 295.25C118.94 294.562 118.94 293.437 118.662 292.75C118.385 292.062 118.158 292.625 118.158 294C118.158 295.375 118.385 295.937 118.662 295.25ZM120.037 145C120.463 153.679 120.65 150.388 120.801 131.583C120.91 117.879 120.822 106.854 120.605 107.083C119.858 107.871 119.474 133.51 120.037 145ZM120.739 174.75C120.937 171.588 120.937 166.412 120.739 163.25C120.541 160.088 120.378 162.675 120.378 169C120.378 175.325 120.541 177.912 120.739 174.75ZM122.747 307.25C122.918 299.963 122.918 288.038 122.747 280.75C122.577 273.463 122.437 279.425 122.437 294C122.437 308.575 122.577 314.538 122.747 307.25ZM125.748 257.75C125.917 250.187 125.917 237.812 125.748 230.25C125.578 222.687 125.439 228.875 125.439 244C125.439 259.125 125.578 265.312 125.748 257.75ZM127.742 239.75C127.934 236.037 127.934 229.963 127.742 226.25C127.549 222.537 127.392 225.575 127.392 233C127.392 240.425 127.549 243.463 127.742 239.75ZM127.748 163.75C127.917 156.187 127.917 143.812 127.748 136.25C127.578 128.687 127.439 134.875 127.439 150C127.439 165.125 127.578 171.312 127.748 163.75ZM129.972 195C130.371 181.624 130.629 188.106 131.065 222.5C131.533 259.356 131.565 257.455 131.24 212C131.021 181.475 130.525 141.875 130.138 124C129.517 95.3479 129.435 98.6629 129.442 152C129.446 185.275 129.685 204.625 129.972 195ZM131.748 118.316C131.91 107.765 131.911 90.2149 131.749 79.3159C131.587 68.4169 131.455 77.0499 131.455 98.4999C131.454 119.95 131.587 128.867 131.748 118.316ZM134.733 148.224C134.945 145.872 134.942 142.272 134.727 140.224C134.512 138.176 134.339 140.1 134.343 144.5C134.346 148.9 134.522 150.576 134.733 148.224ZM135.747 275.25C135.918 267.963 135.918 256.038 135.747 248.75C135.577 241.463 135.437 247.425 135.437 262C135.437 276.575 135.577 282.538 135.747 275.25ZM137.738 178.216C137.941 175.311 137.939 170.811 137.734 168.216C137.528 165.622 137.363 168 137.365 173.5C137.368 179 137.536 181.122 137.738 178.216ZM142.732 84.2499C142.943 81.9129 142.943 78.0869 142.732 75.7499C142.522 73.4129 142.349 75.3249 142.349 79.9999C142.349 84.6749 142.522 86.5869 142.732 84.2499ZM145.75 232.25C145.902 213.413 145.902 182.588 145.75 163.75C145.597 144.913 145.473 160.325 145.473 198C145.473 235.675 145.597 251.088 145.75 232.25ZM146.707 310.238C146.946 308.994 146.937 307.194 146.687 306.238C146.437 305.282 146.241 306.3 146.252 308.5C146.263 310.7 146.468 311.482 146.707 310.238ZM146.728 300.75C146.944 298.687 146.944 295.312 146.728 293.25C146.513 291.187 146.336 292.875 146.336 297C146.336 301.125 146.513 302.812 146.728 300.75ZM154.749 307.75C154.908 295.237 154.908 274.762 154.749 262.25C154.59 249.737 154.461 259.975 154.461 285C154.461 310.025 154.59 320.262 154.749 307.75ZM156.743 117.25C156.932 113.262 156.932 106.738 156.743 102.75C156.553 98.7619 156.397 102.025 156.397 110C156.397 117.975 156.553 121.238 156.743 117.25ZM162.741 229.211C162.937 225.752 162.936 220.352 162.738 217.211C162.54 214.07 162.38 216.9 162.382 223.5C162.384 230.1 162.546 232.67 162.741 229.211ZM167.723 229.25C167.945 227.463 167.945 224.537 167.723 222.75C167.502 220.963 167.32 222.425 167.32 226C167.32 229.575 167.502 231.037 167.723 229.25ZM174.743 202.75C174.931 198.488 174.931 191.512 174.743 187.25C174.556 182.988 174.402 186.475 174.402 195C174.402 203.525 174.556 207.012 174.743 202.75ZM174.743 102.75C174.931 98.4879 174.931 91.5119 174.743 87.2499C174.556 82.9879 174.402 86.4749 174.402 94.9999C174.402 103.525 174.556 107.012 174.743 102.75ZM175.743 149.25C175.932 145.262 175.932 138.738 175.743 134.75C175.553 130.762 175.397 134.025 175.397 142C175.397 149.975 175.553 153.238 175.743 149.25ZM176.748 354.25C176.917 346.413 176.917 333.588 176.748 325.75C176.579 317.913 176.441 324.325 176.441 340C176.441 355.675 176.579 362.088 176.748 354.25ZM178.662 241.25C178.94 240.562 178.94 239.437 178.662 238.75C178.385 238.062 178.158 238.625 178.158 240C178.158 241.375 178.385 241.937 178.662 241.25ZM178.747 144.694C178.922 138.2 178.921 127.85 178.746 121.694C178.571 115.537 178.428 120.85 178.429 133.5C178.429 146.15 178.573 151.187 178.747 144.694ZM179.732 188.25C179.943 185.912 179.943 182.088 179.732 179.75C179.522 177.412 179.349 179.325 179.349 184C179.349 188.675 179.522 190.588 179.732 188.25ZM183.74 202.25C183.936 198.812 183.936 193.187 183.74 189.75C183.545 186.312 183.385 189.125 183.385 196C183.385 202.875 183.545 205.687 183.74 202.25ZM190.747 317.694C190.922 311.2 190.921 300.85 190.746 294.694C190.571 288.537 190.428 293.85 190.429 306.5C190.429 319.15 190.573 324.187 190.747 317.694ZM195.743 177.25C195.932 173.262 195.932 166.738 195.743 162.75C195.553 158.762 195.397 162.025 195.397 170C195.397 177.975 195.553 181.238 195.743 177.25ZM201.718 230.736C201.947 229.216 201.941 226.966 201.704 225.736C201.467 224.506 201.279 225.75 201.286 228.5C201.294 231.25 201.488 232.256 201.718 230.736ZM201.736 132.72C201.943 130.091 201.94 126.041 201.731 123.72C201.521 121.399 201.352 123.55 201.355 128.5C201.358 133.45 201.53 135.349 201.736 132.72ZM202.742 109.75C202.934 106.038 202.934 99.9619 202.742 96.2499C202.549 92.5379 202.392 95.5749 202.392 103C202.392 110.425 202.549 113.463 202.742 109.75ZM204.749 74.2499C204.912 64.2119 204.912 47.7869 204.749 37.7499C204.585 27.7119 204.452 35.9249 204.452 55.9999C204.452 76.0749 204.585 84.2869 204.749 74.2499ZM206.749 258.25C206.904 242.712 206.904 217.287 206.749 201.75C206.594 186.212 206.468 198.925 206.468 230C206.468 261.075 206.594 273.787 206.749 258.25ZM207 127.5C207.417 145.527 207.606 138.185 207.762 97.9999C207.891 64.7869 207.602 43.9309 207 42.9999C205.974 41.4119 205.974 83.0879 207 127.5ZM210.744 164.25C210.929 159.713 210.929 152.287 210.744 147.75C210.559 143.213 210.407 146.925 210.407 156C210.407 165.075 210.559 168.787 210.744 164.25ZM220.75 239.25C220.902 220.963 220.902 191.038 220.75 172.75C220.597 154.463 220.472 169.425 220.472 206C220.472 242.575 220.597 257.538 220.75 239.25ZM224.749 298.25C224.908 286.012 224.908 265.987 224.749 253.75C224.59 241.512 224.46 251.525 224.46 276C224.46 300.475 224.59 310.487 224.749 298.25ZM229.748 332.75C229.915 324.088 229.915 309.913 229.748 301.25C229.582 292.588 229.445 299.675 229.445 317C229.445 334.325 229.582 341.413 229.748 332.75ZM231.742 126.708C231.935 122.973 231.934 117.123 231.739 113.708C231.545 110.294 231.387 113.35 231.389 120.5C231.39 127.65 231.55 130.444 231.742 126.708ZM232.732 216.25C232.943 213.912 232.943 210.088 232.732 207.75C232.522 205.412 232.349 207.325 232.349 212C232.349 216.675 232.522 218.588 232.732 216.25ZM232.723 149.25C232.945 147.463 232.945 144.537 232.723 142.75C232.502 140.963 232.32 142.425 232.32 146C232.32 149.575 232.502 151.037 232.723 149.25ZM239.745 288.203C239.93 283.639 239.929 276.439 239.742 272.203C239.555 267.966 239.404 271.7 239.405 280.5C239.406 289.3 239.559 292.766 239.745 288.203ZM240.993 216.5C241.384 230.946 241.63 220.362 241.781 182.583C241.901 152.379 241.837 127.854 241.638 128.083C240.925 128.905 240.435 195.927 240.993 216.5ZM243.75 176.25C243.897 147.513 243.897 100.488 243.75 71.7499C243.602 43.0129 243.482 66.5249 243.482 124C243.482 181.475 243.602 204.988 243.75 176.25ZM245.745 259.25C245.927 254.163 245.927 245.838 245.745 240.75C245.564 235.662 245.415 239.825 245.415 250C245.415 260.175 245.564 264.338 245.745 259.25ZM248.743 282.75C248.931 278.487 248.931 271.513 248.743 267.25C248.556 262.987 248.402 266.475 248.402 275C248.402 283.525 248.556 287.013 248.743 282.75ZM249.749 164.182C249.908 151.907 249.908 132.107 249.749 120.182C249.589 108.257 249.459 118.3 249.459 142.5C249.46 166.7 249.59 176.457 249.749 164.182ZM270 367.63C275.775 367.63 278.137 367.465 275.25 367.263C272.363 367.061 267.637 367.061 264.75 367.263C261.863 367.465 264.225 367.63 270 367.63ZM270.5 253.734C273.25 253.716 274.262 253.513 272.75 253.284C271.238 253.055 270 252.477 270 252C270 251.523 271.238 250.945 272.75 250.716C275.31 250.329 275.275 250.289 272.25 250.15C270.032 250.048 269 250.453 269 251.427C269 252.211 268.212 253.059 267.25 253.311C266.288 253.562 267.75 253.753 270.5 253.734ZM270.5 203.771C273.25 203.81 274.825 203.594 274 203.291C273.175 202.987 271.608 202.01 270.517 201.12C268.676 199.615 268.627 199.62 269.83 201.178C270.963 202.646 270.774 202.908 268.312 203.278C266.736 203.515 267.698 203.732 270.5 203.771ZM268 242.036C270.453 242.354 273.443 241.882 274.326 241.038C274.78 240.604 273.993 240.47 272.576 240.741C270.667 241.106 270 240.814 270 239.617C270 238.683 270.82 238 271.941 238C273.009 238 274.134 237.592 274.442 237.093C274.751 236.595 274.056 236.434 272.899 236.737C271.742 237.039 270.504 236.822 270.148 236.254C269.728 235.585 269.046 235.71 268.211 236.611C267.467 237.412 267.361 238 267.961 238C269.429 238 269.257 240.73 267.75 241.338C266.874 241.691 266.949 241.9 268 242.036ZM268.295 219.242C270.199 219.909 274.327 218.571 274.601 217.197C274.738 216.511 274.621 216.411 274.342 216.975C273.715 218.239 270.29 218.333 269.833 217.099C269.65 216.603 268.958 216.787 268.295 217.509C267.354 218.532 267.354 218.913 268.295 219.242ZM267.5 163.951C268.05 164.1 269.574 164.131 270.886 164.021C272.198 163.911 273.654 164.424 274.12 165.161C274.695 166.067 274.969 165.529 274.969 163.5C274.969 161.809 274.645 161.01 274.226 161.669C273.817 162.311 271.911 163.027 269.991 163.259C268.071 163.49 266.95 163.802 267.5 163.951ZM267.989 159.493C268.541 159.834 268.731 159.463 268.42 158.653C267.518 156.301 269.583 155.882 271.521 158.024C273.976 160.736 275.013 160.501 274.93 157.25C274.876 155.14 274.696 154.914 274.157 156.277C273.538 157.844 273.227 157.887 271.519 156.638C270.455 155.859 269.002 155.446 268.292 155.718C266.766 156.304 266.58 158.622 267.989 159.493ZM267.5 151.951C268.05 152.1 269.574 152.131 270.886 152.021C272.198 151.911 273.654 152.424 274.12 153.161C274.695 154.067 274.969 153.529 274.969 151.5C274.969 149.809 274.645 149.01 274.226 149.669C273.817 150.311 271.911 151.027 269.991 151.259C268.071 151.49 266.95 151.802 267.5 151.951ZM267.667 147.333C268.864 148.53 271 148.034 271 146.559C271 144.036 272.982 143.785 273.945 146.186C274.497 147.563 274.899 147.872 274.937 146.95C274.971 146.097 274.495 144.895 273.878 144.278C272.483 142.883 270 143.734 270 145.607C270 147.602 268.233 147.329 267.689 145.25C267.323 143.848 267.209 143.815 267.116 145.083C267.052 145.954 267.3 146.967 267.667 147.333ZM267.5 139.951C268.05 140.1 269.574 140.131 270.886 140.021C272.198 139.911 273.654 140.424 274.12 141.161C274.695 142.067 274.969 141.529 274.969 139.5C274.969 137.809 274.645 137.01 274.226 137.669C273.817 138.311 271.911 139.027 269.991 139.259C268.071 139.49 266.95 139.802 267.5 139.951ZM267.5 133.951C268.05 134.1 269.574 134.131 270.886 134.021C272.198 133.911 273.654 134.424 274.12 135.161C274.695 136.067 274.969 135.529 274.969 133.5C274.969 131.809 274.645 131.01 274.226 131.669C273.817 132.311 271.911 133.027 269.991 133.259C268.071 133.49 266.95 133.802 267.5 133.951ZM269.433 128.964C272.255 130.475 275 129.753 275 127.5C275 125.202 271.926 124.38 270.521 126.303C269.615 127.542 269.052 127.652 268.165 126.765C267.452 126.052 267 126 267 126.631C267 127.198 268.095 128.248 269.433 128.964ZM267.5 121.951C268.05 122.1 269.574 122.131 270.886 122.021C272.198 121.911 273.654 122.424 274.12 123.161C274.695 124.067 274.969 123.529 274.969 121.5C274.969 119.809 274.645 119.01 274.226 119.669C273.817 120.311 271.911 121.027 269.991 121.259C268.071 121.49 266.95 121.802 267.5 121.951ZM267.989 117.493C268.541 117.834 268.731 117.463 268.42 116.653C267.518 114.301 269.583 113.882 271.521 116.024C273.976 118.736 275.013 118.501 274.93 115.25C274.876 113.14 274.696 112.914 274.157 114.277C273.538 115.844 273.227 115.887 271.519 114.638C270.455 113.859 269.002 113.446 268.292 113.718C266.766 114.304 266.58 116.622 267.989 117.493ZM267.989 111.493C268.541 111.834 268.731 111.463 268.42 110.653C267.518 108.301 269.583 107.882 271.521 110.024C273.976 112.736 275.013 112.501 274.93 109.25C274.876 107.14 274.696 106.914 274.157 108.277C273.538 109.844 273.227 109.887 271.519 108.638C270.455 107.859 269.002 107.446 268.292 107.718C266.766 108.304 266.58 110.622 267.989 111.493ZM270.75 258.985C271.749 258.976 272.071 258.649 271.5 258.223C270.95 257.813 270.163 257.069 269.75 256.572C269.337 256.074 269 256.417 269 257.333C269 258.26 269.777 258.993 270.75 258.985ZM271.75 247.85C274.383 247.972 275 247.62 275 246C275 244.38 274.383 244.028 271.75 244.15C268.725 244.289 268.69 244.329 271.25 244.716C272.762 244.945 274 245.523 274 246C274 246.477 272.762 247.055 271.25 247.284C268.69 247.671 268.725 247.711 271.75 247.85ZM269.646 233.312C270.95 234.617 272 233.994 272 231.917C272 230.753 271.476 230.008 270.813 230.229C269.351 230.716 268.719 232.386 269.646 233.312ZM272.25 227.864C275.002 227.749 275.117 227.656 273 227.263C271.625 227.007 270.169 226.281 269.765 225.649C269.293 224.911 269.025 225.126 269.015 226.25C269.004 227.588 269.764 227.968 272.25 227.864ZM270.75 223.985C271.749 223.976 272.071 223.649 271.5 223.223C270.95 222.813 270.163 222.069 269.75 221.572C269.337 221.074 269 221.417 269 222.333C269 223.26 269.777 223.993 270.75 223.985ZM269.667 214.333C270.717 215.383 273.813 215.112 274.559 213.904C275.546 212.307 272.645 209.815 270.678 210.57C268.97 211.225 268.46 213.126 269.667 214.333ZM270.5 208.638C272.519 209.413 275.019 208.363 274.921 206.781C274.859 205.778 274.733 205.771 274.338 206.75C274.06 207.437 273.008 208 272 208C270.992 208 269.94 207.437 269.662 206.75C269.267 205.771 269.141 205.778 269.079 206.781C269.036 207.486 269.675 208.322 270.5 208.638ZM270.5 194.638C272.519 195.413 275.019 194.363 274.921 192.781C274.859 191.778 274.733 191.771 274.338 192.75C274.06 193.437 273.008 194 272 194C270.992 194 269.94 193.437 269.662 192.75C269.267 191.771 269.141 191.778 269.079 192.781C269.036 193.486 269.675 194.322 270.5 194.638ZM270.5 189.638C272.572 190.433 275 189.354 275 187.638C275 185.688 272.053 184.711 270.373 186.105C268.583 187.591 268.631 188.921 270.5 189.638ZM272.35 183.85C275.373 183.706 275.389 183.684 272.75 183.284C271.238 183.055 270 182.477 270 182C270 181.523 271.238 180.945 272.75 180.716L275.5 180.3L272.75 180.15C271.238 180.067 270 179.58 270 179.066C270 178.553 271.238 177.945 272.75 177.716C275.389 177.316 275.373 177.294 272.35 177.15C269.388 177.009 269.2 177.209 269.2 180.5C269.2 183.791 269.388 183.991 272.35 183.85ZM272 211.5C272.733 211.5 273.521 212.062 273.75 212.75C273.998 213.494 273.289 214 272 214C270.711 214 270.002 213.494 270.25 212.75C270.479 212.062 271.267 211.5 272 211.5ZM272 186.5C272.733 186.5 273.521 187.062 273.75 187.75C273.998 188.494 273.289 189 272 189C270.711 189 270.002 188.494 270.25 187.75C270.479 187.062 271.267 186.5 272 186.5ZM272.5 126.85C273.022 126.85 273.611 127.334 273.808 127.925C274.005 128.516 273.417 129 272.5 129C271.583 129 270.995 128.516 271.192 127.925C271.389 127.334 271.978 126.85 272.5 126.85ZM273.538 257.789C274.746 258.855 275 258.811 275 257.539C275 256.693 274.325 256 273.5 256C271.676 256 271.68 256.15 273.538 257.789ZM273.538 222.789C274.746 223.855 275 223.811 275 222.539C275 221.693 274.325 221 273.5 221C271.676 221 271.68 221.15 273.538 222.789ZM272.882 202C273.432 202 274.16 201.55 274.5 201C274.84 200.45 274.668 200 274.118 200C273.568 200 272.84 200.45 272.5 201C272.16 201.55 272.332 202 272.882 202ZM274.168 233.232C274.75 232.65 275.028 231.585 274.788 230.863C274.538 230.114 274.085 230.568 273.731 231.92C273.296 233.583 273.426 233.974 274.168 233.232Z" fill="black"/>
</g>
<defs>
<clipPath id="clip0_572_900">
<rect width="368" height="258" fill="white" transform="translate(0 368) rotate(-90)"/>
</clipPath>
</defs>
</svg>
